/* XPM */
static char *_203506abf6d47a4ad48421fe743c910dVzHER0zOLn5uImt[] = {
/* columns rows colors chars-per-pixel */
"20 20 36 1 ",
"  c #63AD8A",
". c #66AF8C",
"X c #67B08D",
"o c #68B08D",
"O c #6CB491",
"+ c #6FB592",
"@ c #70B693",
"# c #76BA97",
"$ c #77BC96",
"% c #78BC99",
"& c #7EBF9C",
"* c #7DC09B",
"= c #7EC09C",
"- c #81C29F",
"; c #82C39F",
": c #83C3A0",
"> c #83C4A1",
", c #84C4A1",
"< c #86C5A2",
"1 c #87C5A3",
"2 c #87C6A4",
"3 c #89C7A4",
"4 c #8AC8A5",
"5 c #8DC9A8",
"6 c #91CCAC",
"7 c #96CFB0",
"8 c #98D1B1",
"9 c #9BD3B3",
"0 c #9CD3B4",
"q c #9CD3B5",
"w c #9CD4B4",
"e c #9FD6B7",
"r c #A2D7B9",
"t c #A4D8BB",
"y c #A6D9BC",
"u c #B4E3C7",
/* pixels */
",,,,,,,,,,,,,,,,,,,,",
",,,,,,>>,,,,,,,,,,,,",
",,>:,,,,>,,,,,,,,,,,",
",,,,,>=&,,2,,,,,,,,,",
",,:-,2 +4:-:,,,,,,,,",
",4+o42 +5: %4>,,,,,,",
",,-@X-=:*.#:,,,,,,,,",
",,4-+>34*+4,,,,,,,,,",
",,,,3,,,22,:,,,,,,,,",
",,,,,,,,>>,,,,:,,,,,",
",,,,,,,,>,,,,::>,,,,",
",,,,,,,,,>=,:5e2;--;",
",,,,,,,,,,e3$7u3%68,",
",,,,,,,,:,rq>5e23r0;",
",,,,,,,,>:=te=:=yw&3",
",,,,,,,,,>:2,>>,4,-,",
",,,,,,,,,,,--,,,:;,,",
",,,,,,,,,,,,,,,,,,,,",
",,,,,,,,,,,,,,,,,,,,",
",,,,,,,,,,,,,,,,,,,,"
};
