/* XPM */
static char *_4a32f2460b54d598411e8dc4c2e750aMH0DSpA7EPPFF3GS[] = {
/* columns rows colors chars-per-pixel */
"20 20 145 2 ",
"   c #70C8A0",
".  c #62C199",
"X  c #45B28A",
"o  c #6BC69E",
"O  c #483038",
"+  c #3FAD7F",
"@  c #399339",
"#  c #5FB77E",
"$  c #58BC94",
"%  c #5FC098",
"&  c #6CC69E",
"*  c #63C29A",
"=  c #40A820",
"-  c #419E52",
";  c #7AC38D",
":  c #66C39B",
">  c #4EB78F",
",  c #56B47E",
"<  c #54AC68",
"1  c #606070",
"2  c #54A966",
"3  c #54985D",
"4  c #62AC7C",
"5  c #69C49C",
"6  c #5EC094",
"7  c #56B275",
"8  c #57A85B",
"9  c #68D040",
"0  c #57A459",
"q  c #578D4C",
"w  c #5B945D",
"e  c #60AE80",
"r  c #39AF7D",
"t  c #5ABF92",
"y  c #96DCBA",
"u  c #A0E0C0",
"i  c #F8F8F8",
"p  c #C8C8D8",
"a  c #99D6B4",
"s  c #679861",
"d  c #3A7636",
"f  c #40B088",
"g  c #6AC59C",
"h  c #46B586",
"j  c #4AB889",
"k  c black",
"l  c #785850",
"z  c #5E8A51",
"x  c #3D7827",
"c  c #3A9648",
"v  c #63C298",
"b  c #4FB98B",
"n  c #A06850",
"m  c #418B36",
"M  c #3B934A",
"N  c #48AE7B",
"B  c #51BA8C",
"V  c #44B484",
"C  c #D8A090",
"Z  c #3A7C36",
"A  c #4C9865",
"S  c #4AB481",
"D  c #41B382",
"F  c #497A3B",
"G  c #50874C",
"H  c #5FA675",
"J  c #9BDCB9",
"K  c #F8D8C8",
"L  c #6BC198",
"P  c #5CA16E",
"I  c #39611C",
"U  c #71BC7F",
"Y  c #C88070",
"T  c #418B54",
"R  c #3E783A",
"E  c #3FA77C",
"W  c #4AA764",
"Q  c #55AD6B",
"!  c #3A7234",
"~  c #39792D",
"^  c #398731",
"/  c #3A9A4A",
"(  c #4AAE78",
")  c #388228",
"_  c #39953D",
"`  c #3CA05C",
"'  c #50B483",
"]  c #396522",
"[  c #385D13",
"{  c #386719",
"}  c #385A11",
"|  c #385810",
" . c #386015",
".. c #398C38",
"X. c #40A25F",
"o. c #4EB589",
"O. c #3EA15D",
"+. c #4DA559",
"@. c #4CB488",
"#. c #3C8549",
"$. c #386D1C",
"%. c #388B2D",
"&. c #386316",
"*. c #387420",
"=. c #3A9948",
"-. c #3B783A",
";. c #3C844C",
":. c #4CB086",
">. c #49A358",
",. c #52AB67",
"<. c #6CC498",
"1. c #49B58D",
"2. c #3C9D51",
"3. c #388F33",
"4. c #388C2E",
"5. c #388F30",
"6. c #389133",
"7. c #3DA168",
"8. c #3C793D",
"9. c #3F9C4D",
"0. c #408536",
"q. c #47793A",
"w. c #3C7335",
"e. c #396C22",
"r. c #3B8844",
"t. c #3EA66E",
"y. c #3A8B3C",
"u. c #38691A",
"i. c #3A702C",
"p. c #3DA569",
"a. c #3A8A3E",
"s. c #3D915E",
"d. c #40AE84",
"f. c #3CA260",
"g. c #398132",
"h. c #387C25",
"j. c #389030",
"k. c #44A86D",
"l. c #3A7630",
"z. c #3D935E",
"x. c #39812D",
"c. c #38701D",
"v. c #429D4E",
"b. c #49A152",
"n. c #387F26",
/* pixels */
"      . X o O O . + @ # O O o X .       ",
"  $ % & * O = = O - ; O = = O * &   : > ",
"  % , < < O = = O 1 1 O = = O 2 3 4 5 $ ",
"  6 7 8 8 O O 1 9 9 9 9 1 O O 0 q w e . ",
"  r t y u O = 9 9 9 9 9 i p O u a s d f ",
"  g h j k l p 9 9 9 i i i i l k z x c f ",
"    v b k n n p i i i i p n n k m M N . ",
"  B V k n C n l O l l O l n C n k Z A   ",
"# S D k l n O O C n O C O O n l k F G H ",
"@ ; J O l O O K K l O K K O O l O L P I ",
"+ - U O O l Y C O K K O C Y l O O T R E ",
". N W Q k k l C O C C O C l k k ! ~ ^ / ",
"  % ( k i i k l Y Y Y Y l k i i k ) _ ` ",
"  : ' k p p k ] [ { } |  .k p p k ..X.> ",
"  o.O.+.  & @.#.$.%.&.} *.=.+ + -.;.:.o ",
"  >.,.<.& 1.2.3.4.5.%.{ *.6.@ @ 7.;.8.X ",
"> 9.0.F q.w.e.r.t.t.t.y.*.u.u.u.i.] e./ ",
"f p.a.*.*.*.*.Z s.d.f.g.*.*.*.*.*.*.h.j.",
"> > k./ =.6.j.h.l.z.x.c.h.j.6.=./ v.b.b.",
"    $ f + @ j.j.n.| | n.j.j.@ + f $     "
};
