/* XPM */
static char *d0e6fabc2fc649cea9eeb1abae713ac6PtCE2F9zBUqIWQ7t[] = {
/* columns rows colors chars-per-pixel */
"20 20 34 1 ",
"  c #84C4A1",
". c #483038",
"X c #40A820",
"o c #606070",
"O c #83C4A1",
"+ c #83C3A0",
"@ c #68D040",
"# c #86C5A2",
"$ c #86C6A3",
"% c #C8C8D8",
"& c #F8F8F8",
"* c #82C2A0",
"= c #81C29F",
"- c black",
"; c #785850",
": c #89C8A5",
"> c #A06850",
", c #F86058",
"< c #C04040",
"1 c #D8A090",
"2 c #F8D8C8",
"3 c #C88070",
"4 c #85C4A1",
"5 c #84C4A0",
"6 c #82C39F",
"7 c #7FC19D",
"8 c #91CCAC",
"9 c #98D1B1",
"0 c #82C3A0",
"q c #283840",
"w c #9DD4B5",
"e c #7DC09B",
"r c #85C4A2",
"t c #85C5A2",
/* pixels */
"      ...   ....    ",
"     .XX.oo.XXXX.   ",
"  O+ ..o@@@@o.X.    ",
"  #$ .X@@@%&&%.     ",
"  *=$-.%&&&&%.;-    ",
"O;;;:->.;;..;>>-    ",
";&,<;1>1>.11.>1>-   ",
"<--,<>.2;.222.>;-   ",
".-%.-.1.22.22.>;.   ",
"%oo&&;1.22.113.;.   ",
"-%%%--;111133;.;- 4 ",
" ---- -;3333;-.-567 ",
"  -&&----;;--.;-;890",
"  ;%%-1<q<<q.-3o%ow*",
"   ;---X<<<<X--%%oer",
"     -o<X@@X<o-qo#+ ",
"     -qq<<<<qq- =0r ",
"      -;q--q;-  t4  ",
"      -;<--<;-      ",
"       --  --       "
};
