/* XPM */
static char *_e045f891e4a4e96b070af4de355e323A7OM110CyH66zLnM[] = {
/* columns rows colors chars-per-pixel */
"20 20 22 1 ",
"  c #70C8A0",
". c #483038",
"X c #40A820",
"o c #606070",
"O c #68D040",
"+ c #C8C8D8",
"@ c #F8F8F8",
"# c #6EC79F",
"$ c #6DC69E",
"% c black",
"& c #785850",
"* c #5ABD95",
"= c #52B991",
"- c #A06850",
"; c #D8A090",
": c #F86058",
"> c #C04040",
", c #F8D8C8",
"< c #C88070",
"1 c #283840",
"2 c #73CAA2",
"3 c #72C9A2",
/* pixels */
"      .XX.  ....    ",
"      .X.XX.XXXX.   ",
"      .oOOOOo.X.    ",
"     .XOOO+@@+.     ",
"  #$ %.+@@@@+.&%    ",
"  *= %--.&..&--%    ",
" &&&%;-&-.;;.-;-%   ",
"&@:>&-.,&.,,,.--%   ",
">%%::.;.,,.,,.-&.   ",
".%+..&;.,,.;;<.&.   ",
"+oo@+%&;;;;<<&.&%   ",
"%+++% %&<<<<&%.%    ",
" %%%o%&%%&&%%&&%o+o ",
" o++%;;>.>>>1.%&++o ",
"  o%%&1.X>>>>X%11o  ",
"      %o>XOOX>o%23  ",
"      %11>>>>11%    ",
"       %;1111;%     ",
"       %&1%%1&%     ",
"       %&>%%>&%     "
};
