/* XPM */
static char *_5bb2ac26fc444c4c02849ed1105fb806zu57QucP7EDEpFx[] = {
/* columns rows colors chars-per-pixel */
"20 20 29 1 ",
"  c #70C8A0",
". c #483038",
"X c #40A820",
"o c #606070",
"O c #68D040",
"+ c #C8C8D8",
"@ c #F8F8F8",
"# c #6EC79F",
"$ c #6DC69E",
"% c black",
"& c #785850",
"* c #5ABD95",
"= c #52B991",
"- c #A06850",
"; c #69C49C",
": c #D8A090",
"> c #F8D8C8",
", c #C88070",
"< c #8ED7B4",
"1 c #73CAA2",
"2 c #75CAA3",
"3 c #7CCEA8",
"4 c #81D0AB",
"5 c #283840",
"6 c #C04040",
"7 c #7ACDA7",
"8 c #88D4B0",
"9 c #86D3AE",
"0 c #72C9A2",
/* pixels */
"     ...    ...     ",
"    .XXX.oo.XXX.    ",
"    .X.oOOOOo.X.    ",
"     .XOOO+@@+.     ",
"  #$%&.+@@@@+.&%    ",
"  *=%--&.&&.&--%    ",
"  ;%-:-.:-.:.-:-%   ",
"   %&-.>>&.>>.-&%   ",
"   .&..>.>>.>..&.   ",
"   ..&,:.>>.:,&..   ",
"   % %&,,::,,&% %   ",
"      %&,,,,&%<1    ",
"     %>%%%%%%>%2 34 ",
"    %@@%5665%@@%788 ",
"    %++%6666%++%<9  ",
"     %%oXOOXo%% 10  ",
"     %55666655%     ",
"      %:5555:%      ",
"      %&6%%6&%      ",
"       %%  %%       "
};
