/* XPM */
static char *result[] = {
/* columns rows colors chars-per-pixel */
"20 20 31 1 ",
"  c #84C4A1",
". c #483038",
"X c #40A820",
"o c #606070",
"O c #83C4A1",
"+ c #83C3A0",
"@ c #68D040",
"# c #86C5A2",
"$ c #86C6A3",
"% c #C8C8D8",
"& c #F8F8F8",
"* c #82C2A0",
"= c #81C29F",
"- c black",
"; c #785850",
": c #89C7A4",
"> c #87C6A3",
", c #A06850",
"< c #F86058",
"1 c #C04040",
"2 c #D8A090",
"3 c #F8D8C8",
"4 c #C88070",
"5 c #85C4A1",
"6 c #82C39F",
"7 c #7FC19D",
"8 c #98D1B1",
"9 c #82C3A0",
"0 c #283840",
"q c #85C4A2",
"w c #85C5A2",
/* pixels */
"       ...   ....   ",
"      .XX.oo.XXXX.  ",
"  O+  ..o@@@@o.X.   ",
"  #$  .X@@@%&&%.    ",
"  *=$$-.%&&&&%.;-   ",
"O:;;;>-,.;;..;,,-   ",
" ;&<1;2,2,.22.,2,-  ",
";1--<1,.3;.333.,;-  ",
"-.-%.-.2.33.33.,;.  ",
"-%oo&&;2.33.224.;.  ",
" -%%%--;222244;.;-5 ",
"  ---- -;4444;-.-67 ",
"   -&&----;;--.;-;89",
"   ;%%-210110.-4o%o*",
"    ;---X1111X--%%oq",
"      -o1X@@X1o-0o+ ",
"      -00111100-=9q ",
"       -;0--0;- w5  ",
"       -;1--1;-     ",
"        --  --      "
};
