/* XPM */
static char *_8d45d7ff74b43d9ba7d805f3a180d08Pj0Z5Y5ABgL0c7Jg[] = {
/* columns rows colors chars-per-pixel */
"20 20 147 2 ",
"   c #000105",
".  c #080304",
"X  c #090A07",
"o  c #150401",
"O  c #130008",
"+  c #000612",
"@  c #1A0C16",
"#  c #1D1215",
"$  c #240000",
"%  c #3D0905",
"&  c #111825",
"*  c #191D2C",
"=  c #191135",
"-  c #311D20",
";  c #1F3D35",
":  c #263627",
">  c #400100",
",  c #5B0000",
"<  c #4F1607",
"1  c #5C1B0F",
"2  c #521B11",
"3  c #650603",
"4  c #6B0B02",
"5  c #782A17",
"6  c #7B321E",
"7  c #4C362D",
"8  c #6B2B20",
"9  c #62362B",
"0  c #6C3C33",
"q  c #50472F",
"w  c #4F4631",
"e  c #4E463E",
"r  c #5A4833",
"t  c #564A3C",
"y  c #5B4E3F",
"u  c #6F4136",
"i  c #614E37",
"p  c #7A403B",
"a  c #373044",
"s  c #705747",
"d  c #514E60",
"f  c #495366",
"g  c #4D5C69",
"h  c #4E487C",
"j  c #5C656A",
"k  c #466279",
"l  c #49637E",
"z  c #556A72",
"x  c #596A76",
"c  c #5E617B",
"v  c #506C7D",
"b  c #5C697D",
"n  c #54737A",
"m  c #6A6A61",
"M  c #62627D",
"N  c #72717B",
"B  c #787678",
"V  c #822D1B",
"C  c #85311D",
"Z  c #863223",
"A  c #8C3724",
"S  c #8F3A29",
"D  c #913926",
"F  c #943B29",
"G  c #983B29",
"H  c #A73A2C",
"J  c #A93D2F",
"K  c #AE3E32",
"L  c #9D412E",
"P  c #A64432",
"I  c #A14A34",
"U  c #B44436",
"Y  c #B44D3B",
"T  c #C1563F",
"R  c #B85743",
"E  c #BC7160",
"W  c #C65645",
"Q  c #C95948",
"!  c #CF5F53",
"~  c #C46251",
"^  c #D06154",
"/  c #DB695A",
"(  c #5C947B",
")  c #5C9978",
"_  c #688674",
"`  c #6B8975",
"'  c #619C7D",
"]  c #CD8777",
"[  c #CF937E",
"{  c #E98C6F",
"}  c #5F5981",
"|  c #5C6B80",
" . c #57738E",
".. c #766F97",
"X. c #756C98",
"o. c #787694",
"O. c #7B739D",
"+. c #7B7B9D",
"@. c #8779A4",
"#. c #5F998A",
"$. c #72898B",
"%. c #659988",
"&. c #65A284",
"*. c #68A582",
"=. c #67A588",
"-. c #70A693",
";. c #70AC9A",
":. c #66C596",
">. c #66C69D",
",. c #6EC69E",
"<. c #6DCB9E",
"1. c #70C69F",
"2. c #6BC7A0",
"3. c #6FC9A1",
"4. c #70C7A0",
"5. c #71C9A1",
"6. c #73D1A4",
"7. c #74D4AA",
"8. c #78D5A9",
"9. c #74D8AC",
"0. c #84868B",
"q. c #838799",
"w. c #8796A6",
"e. c #8E92AB",
"r. c #AAADA5",
"t. c #B2B2A1",
"y. c #E2A799",
"u. c #F1AD92",
"i. c #E2BBA8",
"p. c #EEC7B2",
"a. c #A5B0C2",
"s. c #ACB4C5",
"d. c #ADB4C9",
"f. c #B0B5C5",
"g. c #B6BAD1",
"h. c #CACAD4",
"j. c #C4D6DC",
"k. c #D1D7D2",
"l. c #DADBD6",
"z. c #C9D7E1",
"x. c #D8E2E3",
"c. c #D6E8F8",
"v. c #E9ECEF",
"b. c #F1F0EB",
"n. c #F7FCE8",
"m. c #EFEFF3",
"M. c white",
/* pixels */
"4.3.4.4.3.,.3.7.7.7.9.9.7.<.,.,.4.4.4.4.",
"4.4.<.,.3.9.` y w w q q t _ 9.5.1.4.4.5.",
"4.5.1.4.2.*.9 , 3 4 4 4 4 u *.>.3.<.4.4.",
"5.4.5.,.) r 6 I R Y R R Y A r ' 2.3.4.4.",
"4.5.>.) i 5 E u.{ Q Q Q Q K 5 s ' >.4.4.",
"<.9.( 7 5 U p.n.y.U D S G Y W 5 r &.7.<.",
"5.` 0 Z H U [ i.] P L D Z L Y H A u ` 5.",
"9.e 4 W ! G Y Q I 5 V C S S G ^ T 3 e 9.",
"9.: % ~ / S J J 1 $ $ < D G G / ~ > : 8.",
"8.; O p K F A 8 - & & - 8 A G K p O ; 8.",
"1.v = . % P 1 @ f w.w.g @ 1 P % . = v 6.",
"6. .h j t 2 o + M c.c.b + o 2 t j h  .5.",
"6.z o.z.r.#   * c g.g.c *   # r.j.O.| 9.",
"5.%.$.a.f.0.B N d a a d N B 0.s.s.q.%.5.",
"3.7.&.g +.m.M.l.m X X m l.M.m.+.M -.7.4.",
"4.5.:.#...e.h.v.k.t.t.k.v.h.e...%.:.5.4.",
"4.3.,.4.;.z o.d.x.b.b.x.d.o.z ;.,.,.4.4.",
"4.4.1.6.<.=.x } ..@.@.X.} x &.6.5.<.<.5.",
"4.4.3.1.1.9.=.n l k k l n =.9.4.1.4.5.4.",
"3.5.<.4.<.3.5.6.5.8.6.6.5.5.1.4.4.4.4.5."
};
