/* XPM */
static char *f5752fd5e8f141e4f00ce70092bb43e9HOGaYHqikoX3McUx[] = {
/* columns rows colors chars-per-pixel */
"20 20 154 2 ",
"   c #472A34",
".  c #4F2D36",
"X  c #492D38",
"o  c #522F36",
"O  c #502F38",
"+  c #513034",
"@  c #54343D",
"#  c #59363D",
"$  c #613236",
"%  c #623A3E",
"&  c #713E3E",
"*  c #563740",
"=  c #563941",
"-  c #5B3A42",
";  c #5E3B4B",
":  c #643E43",
">  c #6B3F42",
",  c #793E41",
"<  c #5C444D",
"1  c #5D4E58",
"2  c #674246",
"3  c #6D4245",
"4  c #6A4549",
"5  c #6D494F",
"6  c #714446",
"7  c #7B4745",
"8  c #744649",
"9  c #794749",
"0  c #744C4B",
"q  c #7B4B4A",
"w  c #69544F",
"e  c #624450",
"r  c #694657",
"t  c #614A51",
"y  c #694C56",
"u  c #64535A",
"i  c #785458",
"p  c #7D5B5C",
"a  c #696357",
"s  c #6F6A5F",
"d  c #72645B",
"f  c #765D71",
"g  c #6E7062",
"h  c #727969",
"j  c #6E6A73",
"k  c #747379",
"l  c #7A757E",
"z  c #814D4A",
"x  c #89484B",
"c  c #845655",
"v  c #845B5C",
"b  c #8B5F5D",
"n  c #925557",
"m  c #A5685D",
"M  c #855F60",
"N  c #8D6463",
"B  c #916766",
"V  c #9E6768",
"C  c #956C6D",
"Z  c #986E6C",
"A  c #9A716E",
"S  c #82767C",
"D  c #9C7373",
"F  c #9D7975",
"G  c #A87567",
"H  c #AE796E",
"J  c #A27C77",
"K  c #AF7972",
"L  c #A87E7C",
"P  c #B47677",
"I  c #8C877A",
"U  c #87887A",
"Y  c #82937E",
"T  c #AA816E",
"R  c #A78476",
"E  c #AD8B7F",
"W  c #AC927F",
"Q  c #7B7481",
"!  c #747C82",
"~  c #7B7A82",
"^  c #738783",
"/  c #7B858A",
"(  c #78948D",
")  c #729F8E",
"_  c #7B9592",
"`  c #72A08E",
"'  c #65BC96",
"]  c #72B499",
"[  c #73BC9F",
"{  c #77BDA1",
"}  c #6BC69D",
"|  c #70C69E",
" . c #6FCEA4",
".. c #70C7A0",
"X. c #71C9A1",
"o. c #6DD2A4",
"O. c #66D5A8",
"+. c #69D6A8",
"@. c #6DD8AA",
"#. c #70D0A5",
"$. c #72D3A8",
"%. c #7CD7AC",
"&. c #71DBAA",
"*. c #9A9B8A",
"=. c #AF8781",
"-. c #AC8983",
";. c #B48482",
":. c #BC8581",
">. c #B48C85",
",. c #B48E88",
"<. c #AA9181",
"1. c #B49283",
"2. c #BA9389",
"3. c #BC9A8C",
"4. c #BD9C94",
"5. c #96A28D",
"6. c #91AC93",
"7. c #C48783",
"8. c #C29C8F",
"9. c #D1978C",
"0. c #C29D91",
"q. c #C99E95",
"w. c #D29F90",
"e. c #C4A293",
"r. c #C9A997",
"t. c #CBAB97",
"y. c #CDAD98",
"u. c #CFB597",
"i. c #D0B599",
"p. c #D5BC9C",
"a. c #C0B3A3",
"s. c #D9BCA1",
"d. c #DCBCAF",
"f. c #DDBDB1",
"g. c #DAC59F",
"h. c #D7C0A0",
"j. c #DAC3A2",
"k. c #DECAA5",
"l. c #DEC5AC",
"z. c #E0CFA8",
"x. c #E6D1AC",
"c. c #E3C9B5",
"v. c #E6CCBB",
"b. c #EBCDBD",
"n. c #E9D0BF",
"m. c #EAE2BB",
"M. c #E9CFC1",
"N. c #E6D3C3",
"B. c #EED5C8",
"V. c #F1DFC5",
"C. c #F1D7CB",
"Z. c #F2DBCB",
"A. c #F3DED0",
"S. c #FAE3D3",
/* pixels */
"......| ..#.O.6.:.>.2.c & , 0 X.&. .} ..",
"....| o...g U a.f.f.f.,.N B A a I 6.+.} ",
"..| o.%.5.n 7.b.C.C.S.f.Z D d.:.9.W ) X.",
"| #.' Y 7.r.N.C.v.c.f.,.A 4.Z.Z.m.m w #.",
"| $.h x e.M.N.M.n.p.2.B 4.S.v.p.x.H s o.",
" .U V 0.M.B.j.c.v.p.p.u.c.C.b.j.j.w.*.O.",
"$.d P A.B.l.p.c.n.g.j.k.j.l.j.4.3.0.-.I ",
"&.a K V.l.s.p.j.c.p.g.y.i.g.p.r.;.e.1.8 ",
"{ a G k.p.g.j.j.g.p.j.E 2.j.j.u.3.s.<.X ",
"~ 5 T x.g.s.j.i.p.j.j.R C e.p.2.u.s.Z @ ",
"C 9 R x.p.s.r.A J x.g.8.D A 0.s.e.q.F @ ",
"4 3 v 3.x.x.L R r.3.8.>.i 5 J E p 5 5 @ ",
"* 4 q v 1.3.N -.s.>.L N : - c c @   @ - ",
"@ 3 7 c C v N F -.;.v 9 : - 7 7 2 - - @ ",
"- 3 & b 2.q c C N M * 6 > - 8 q - = - - ",
"l t o 4 q - 4 q 8 = @ 9 2 - 9 - - + < ~ ",
"[ l ; o # * 3 z 3 @ - # > 0 : = + t k Q ",
" ...k r y o % 4 2 @ . 1 y $ . o e f / ) ",
"} o.] _ ( u # * = - 2 l j < y < ^ ( ` $.",
"..| | o.../ e # @ - B S ! ~ ~ ~ ] @....."
};
