/* XPM */
static char *_20ab33c45ab4d8e8494bda70be76b47VFKgbzCtenHqxEMH[] = {
/* columns rows colors chars-per-pixel */
"20 20 161 2 ",
"   c #3A440B",
".  c #3C580E",
"X  c #3E4C1C",
"o  c #375B16",
"O  c #3B5B15",
"+  c #3E521B",
"@  c #3E4E20",
"#  c #3F5020",
"$  c #3D612E",
"%  c #405C1E",
"&  c #42621B",
"*  c #415622",
"=  c #435C24",
"-  c #43572C",
";  c #456323",
":  c #456924",
">  c #44672E",
",  c #46682B",
"<  c #486D2C",
"1  c #437C24",
"2  c #457429",
"3  c #49722B",
"4  c #456532",
"5  c #4C6A34",
"6  c #466139",
"7  c #476C3D",
"8  c #4A6B3C",
"9  c #526F3C",
"0  c #4C7533",
"q  c #4C7A35",
"w  c #4E7C3C",
"e  c #4C6D43",
"r  c #457142",
"t  c #4A7143",
"y  c #4C7A46",
"u  c #487349",
"i  c #537245",
"p  c #5A7240",
"a  c #527D47",
"s  c #57724F",
"d  c #547B49",
"f  c #4E7B52",
"g  c #5F7A51",
"h  c #4B822B",
"j  c #4F8133",
"k  c #4E8539",
"l  c #508534",
"z  c #50863A",
"x  c #518B3B",
"c  c #368C56",
"v  c #4B8D4D",
"b  c #538E44",
"n  c #5E814B",
"m  c #518F4B",
"M  c #549346",
"N  c #559945",
"B  c #55934A",
"V  c #58974E",
"C  c #579B4A",
"Z  c #518156",
"A  c #5C8152",
"S  c #538953",
"D  c #528258",
"F  c #4F9255",
"G  c #559453",
"H  c #579856",
"J  c #5C9955",
"K  c #52935A",
"L  c #579B5C",
"P  c #5B9D5B",
"I  c #64855D",
"U  c #68815D",
"Y  c #649955",
"T  c #699C57",
"R  c #619D5B",
"E  c #5EA15F",
"W  c #66A15B",
"Q  c #568360",
"!  c #4C9767",
"~  c #579267",
"^  c #569F62",
"/  c #5B9C63",
"(  c #56936E",
")  c #599D6A",
"_  c #579075",
"`  c #5C9F72",
"'  c #708D60",
"]  c #629E61",
"[  c #609370",
"{  c #5DA764",
"}  c #5CA26F",
"|  c #55A274",
" . c #5AA375",
".. c #5BA67C",
"X. c #5EAA7C",
"o. c #64A163",
"O. c #6CA161",
"+. c #6CA66C",
"@. c #73A76A",
"#. c #75AA6E",
"$. c #60A572",
"%. c #6EAC73",
"&. c #6EA078",
"*. c #63AA7C",
"=. c #70AC76",
"-. c #70A37B",
";. c #58A584",
":. c #5FAA85",
">. c #5FAD90",
",. c #63AC85",
"<. c #61AD8D",
"1. c #66B087",
"2. c #6BB186",
"3. c #65B38C",
"4. c #6CB38C",
"5. c #77B483",
"6. c #77B78B",
"7. c #78B38E",
"8. c #64B392",
"9. c #6DB593",
"0. c #6BBA96",
"q. c #6BB79A",
"w. c #67BC9A",
"e. c #6BBA9B",
"r. c #72B691",
"t. c #74BA96",
"y. c #7BBA94",
"u. c #73BA9D",
"i. c #69BCA2",
"p. c #6FC29F",
"a. c #7CC19E",
"s. c #6BC2A4",
"d. c #7EC3A4",
"f. c #86B781",
"g. c #8DBC88",
"h. c #81BD9B",
"j. c #8DC194",
"k. c #81C19E",
"l. c #84C5A3",
"z. c #89C6A3",
"x. c #86C9A7",
"c. c #8AC8A5",
"v. c #86CAAA",
"b. c #8CCBAB",
"n. c #92CFAD",
"m. c #8CCEB1",
"M. c #91CEB1",
"N. c #8DD2B2",
"B. c #94DAB9",
"V. c #A6DABF",
"C. c #A0DCC5",
"Z. c #ADDFC5",
"A. c #B3E1C6",
"S. c #B4E5CD",
"D. c #B9E7CE",
"F. c #B3E6D1",
"G. c #B8E7D1",
"H. c #B7EBD3",
"J. c #BBECD6",
"K. c #BDEBD8",
"L. c #C0EEDA",
/* pixels */
"l.l.c.t.:.k.l.l.d.:.k 5.m.k.k.:.t.z.l.l.",
"l.4.u.m.l.b.c.a. .B j.+.%.m.N.l.m.b.y.3.",
"l.d.*.P o.P r.i...f.L.Y ^ u.d o.a -.N.r.",
"l.a.=.T Y Y / ! y.K.V.W v Q p Y n I 7.k.",
"c.| r.D.S.G.#.1 O.Z.c.R O g H.S.J.' $ 8.",
"l.z...,.D.A.S.@.B N.b.9 r 9.n.G.U O H <.",
"k.n.c.2.2.M.C.c.+./ e.6 t s.0.%.j F t.y.",
"m.1.*...c / R l.y.1 ^ 3 K 8.7 o : 4 [ B.",
"5.2...*.2.J h R 6.R q V } Z 4 i i 5 A -.",
"k j.J.A.Z.b.o.1 o.h.= ( D 4 e.v.x.N.&.+ ",
":.m g.F.l.z.9.K x B = X Z <.<.8.s.Z 8 <.",
"l...G +.q.q.e.w./ % * < V { H r 6 > k H ",
"l.l.,.F K K y D f X * 0 0 ; &   = l M K ",
"l.l.9.) J Y i @ + , * X * 4 e t w x $.u.",
"l.9.F R m.v.p.f ; b ; @ 3 P 8.8.8 u e.l.",
"c.P o.N.v.q.L x z x x = < C B M ,.f r q.",
"9.V 0 s e 7 + S 3.` :.G < = = = r - = H ",
";. .q . & : < 8 _ i.X.w , 5 < : & & 2 h ",
"9.u.*.P P M C 3 4 ~ q = q N M P P E o.] ",
"l.z.t.>.,.b k M k X # k M k b ,.>.t.c.x."
};
