/* XPM */
static char *_97cc4ca392f443bd9aaf17dfa9ed96fND6mtuDEZok66Fi8[] = {
/* columns rows colors chars-per-pixel */
"20 20 2 1 ",
"  c #4878D8",
". c #4991D9",
/* pixels */
" ............       ",
"     ..........     ",
"             ...    ",
"             ...    ",
"               ...  ",
"                ..  ",
"                  . ",
"                  . ",
"                  . ",
"                  ..",
".                  .",
".                  .",
"...                .",
"...                .",
"....               .",
"....               .",
".....              .",
"........            ",
"........            ",
"..........          "
};
